# xmcd
#
# Track frame offsets:
#	150
#	12487
#	24815
#	38573
#	50010
#	62527
#	75362
#	90376
#	105718
#	117773
#
# Disc length: 1719 seconds
#
# Revision: 3
# Processed by: cddbd v1.5.2PL0 Copyright (c) Steve Scherf et al.
# Submitted via: EasyCDDAExtractor 10.0.5.1
#
DISCID=6706b50a
DTITLE=Los Plateros - Best Songs
DYEAR=1999
DGENRE=Blues
TTITLE0=Only You
TTITLE1=Twilight Time
TTITLE2=Harbour Lights
TTITLE3=I Believe
TTITLE4=Put your hand in the hand
TTITLE5=Crying in the Chappel
TTITLE6=The Great Pretender
TTITLE7=My Prayer
TTITLE8=You've got the magic touch
TTITLE9=Smoke gets in your eyes
EXTD=
EXTT0=
EXTT1=
EXTT2=
EXTT3=
EXTT4=
EXTT5=
EXTT6=
EXTT7=
EXTT8=
EXTT9=
PLAYORDER=
